<svg width="26" height="15" viewBox="0 0 26 15" fill="none" xmlns="http://www.w3.org/2000/svg">
<path d="M15.5403 11.7281C16.4609 11.4384 17.6396 13.6406 18.8943 14.4834C19.8361 15.1219 20.5573 14.9841 20.5573 14.9841L23.9017 14.9372C23.9017 14.9372 25.6495 14.8322 24.8233 13.4803C24.7549 13.3678 24.3389 12.4781 22.334 10.6472C20.2376 8.73188 20.5217 9.04219 23.0456 5.73094C24.5835 3.7125 25.1988 2.47969 25.0062 1.95469C24.8213 1.44938 23.6918 1.58063 23.6918 1.58063L19.9237 1.60594C19.5568 1.60688 19.2458 1.7175 19.1042 2.08875C19.1013 2.0925 18.5062 3.65063 17.7127 4.97531C16.0362 7.7775 15.367 7.92656 15.0896 7.75125C14.4531 7.34531 14.6139 6.12281 14.6139 5.25375C14.6139 2.53781 15.0299 1.40531 13.7993 1.11281C13.3881 1.01531 13.0876 0.951563 12.039 0.942188C10.6985 0.922501 9.5603 0.942188 8.91511 1.25063C8.4866 1.45969 8.15822 1.91813 8.35756 1.94438C8.60793 1.97719 9.16934 2.09438 9.46978 2.49375C9.85593 3.01125 9.84437 4.17094 9.84437 4.17094C9.84437 4.17094 10.0649 7.36875 9.32437 7.76531C8.81593 8.03719 8.12067 7.48219 6.62519 4.93781C5.86156 3.63656 5.28474 2.19844 5.28474 2.19844C5.28474 2.19844 5.17304 1.93125 4.97082 1.785C4.73008 1.61156 4.39304 1.55625 4.39304 1.55625L0.816594 1.57875C0.816594 1.57875 0.279261 1.59375 0.0818532 1.82438C-0.0934061 2.02875 0.0674088 2.45063 0.0674088 2.45063C0.0674088 2.45063 2.86867 8.90156 6.04067 12.1509C8.94882 15.1341 12.2537 14.9363 12.2537 14.9363H13.7511C13.7511 14.9363 14.2027 14.8856 14.4339 14.6438C14.6496 14.4188 14.6399 13.9959 14.6399 13.9959C14.6399 13.9959 14.6101 12.0188 15.5403 11.7281Z" fill="white"/>
</svg>
